<svg width="18" height="18" viewBox="0 0 18 18" fill="none" xmlns="http://www.w3.org/2000/svg">
<path d="M4.04147 7.32372C4.40055 6.26205 5.09355 5.33832 6.02161 4.68431C6.94967 4.0303 8.06538 3.67941 9.20956 3.68171C10.5066 3.68171 11.6793 4.13171 12.6002 4.86821L15.2802 2.24995C13.647 0.858693 11.5542 -6.10352e-05 9.20956 -6.10352e-05C5.57946 -6.10352e-05 2.45435 2.02345 0.95166 4.98746L4.04147 7.32372Z" fill="#EA4335"/>
<path d="M12.31 13.5094C11.4734 14.0367 10.4113 14.318 9.20943 14.318C8.0698 14.3202 6.9583 13.9721 6.03231 13.323C5.10631 12.6738 4.41274 11.7564 4.04977 10.7007L0.949219 13.0009C1.70996 14.5057 2.88727 15.7718 4.34741 16.6554C5.80755 17.539 7.492 18.0047 9.20943 17.9997C11.4604 17.9997 13.6108 17.2175 15.2217 15.7497L12.3107 13.5094H12.31Z" fill="#34A853"/>
<path d="M15.2218 15.7502C16.9064 14.2142 18 11.9282 18 9.00022C18 8.46771 17.9163 7.89546 17.7912 7.36371H9.20947V10.8415H14.1489C13.9056 12.0107 13.2509 12.916 12.3108 13.51L15.2218 15.7502Z" fill="#4A90E2"/>
<path d="M4.04999 10.7013C3.86224 10.1529 3.76685 9.57846 3.76757 9.00025C3.76757 8.41375 3.8635 7.8505 4.04155 7.32399L0.951744 4.98773C0.319644 6.23475 -0.00620106 7.60863 8.93746e-05 9.00025C8.93746e-05 10.4403 0.341611 11.7978 0.949441 13.0015L4.04999 10.7013Z" fill="#FBBC05"/>
</svg>
